<svg xmlns="http://www.w3.org/2000/svg" viewBox="0 0 1200 750"><defs><radialGradient id="r" cx="55%" cy="35%"><stop stop-color="#153d73"/><stop offset=".58" stop-color="#071426"/><stop offset="1" stop-color="#020408"/></radialGradient><linearGradient id="line" x1="0" y1="0" x2="1" y2="1"><stop stop-color="#6ee7ff"/><stop offset=".5" stop-color="#7c3cff"/><stop offset="1" stop-color="#f472b6"/></linearGradient><filter id="glow"><feGaussianBlur stdDeviation="8" result="b"/><feMerge><feMergeNode in="b"/><feMergeNode in="SourceGraphic"/></feMerge></filter></defs><rect width="1200" height="750" fill="url(#r)"/><g opacity=".16" stroke="#8bd3ff"><path d="M120 150h960M120 300h960M120 450h960M120 600h960M230 80v590M410 80v590M590 80v590M770 80v590M950 80v590"/></g><g transform="translate(600 375)"><rect x="-210" y="-170" width="420" height="340" rx="42" fill="#0c1320" stroke="#8bd3ff" stroke-opacity=".45" stroke-width="3"/><g filter="url(#glow)" stroke="url(#line)" stroke-width="7" fill="none" stroke-linecap="round"><path d="M-145-90C-50-140 45-40 150-88"/><path d="M-150 8C-60-35 40 42 152 10"/><path d="M-145 92C-60 50 35 140 145 95"/></g><g fill="#e5fbff"><circle cx="-150" cy="-90" r="8"/><circle cx="150" cy="-88" r="8"/><circle cx="-150" cy="8" r="8"/><circle cx="152" cy="10" r="8"/><circle cx="-145" cy="92" r="8"/><circle cx="145" cy="95" r="8"/></g></g></svg>