<svg xmlns="http://www.w3.org/2000/svg" viewBox="0 0 1200 750"><defs><linearGradient id="bg" x1="0" y1="0" x2="1" y2="1"><stop stop-color="#07101f"/><stop offset="1" stop-color="#020408"/></linearGradient><linearGradient id="g" x1="0" y1="0" x2="1" y2="0"><stop stop-color="#38bdf8"/><stop offset=".52" stop-color="#8b5cf6"/><stop offset="1" stop-color="#ff7ab6"/></linearGradient><filter id="glow"><feGaussianBlur stdDeviation="9" result="b"/><feMerge><feMergeNode in="b"/><feMergeNode in="SourceGraphic"/></feMerge></filter></defs><rect width="1200" height="750" fill="url(#bg)"/><g opacity=".22" stroke="#2b7cff"><path d="M0 560C210 350 350 420 520 260S870 60 1200 160"/><path d="M0 620C260 380 390 520 610 310s330-250 590-80"/></g><g filter="url(#glow)" fill="none" stroke="url(#g)" stroke-linecap="round"><path stroke-width="18" d="M-80 515C185 305 380 420 560 330s330-315 730-170"/><path stroke-width="6" opacity=".9" d="M-30 575C240 360 405 470 630 360s330-260 650-160"/></g><g fill="#dff7ff" opacity=".95"><circle cx="250" cy="420" r="6"/><circle cx="485" cy="365" r="5"/><circle cx="705" cy="238" r="7"/><circle cx="960" cy="172" r="5"/></g><g transform="translate(725 310)" filter="url(#glow)"><circle r="86" fill="none" stroke="#42d6ff" stroke-width="3" opacity=".7"/><circle r="46" fill="none" stroke="#ff7ab6" stroke-width="5" opacity=".8"/><circle r="10" fill="#fff"/></g></svg>